# xmcd
#
# Track frame offsets:
#	150
#	45341
#	65605
#	96373
#	129276
#	174966
#	181510
#	207808
#	249212
#	259129
#	269814
#	274055
#	285399
#	299943
#
# Disc length: 4307 seconds
#
# Revision: 1
# Processed by: cddbd v1.5.1PL2 Copyright (c) Steve Scherf et al.
# Submitted via: EasyCDDAExtractor 9.0.0.1
#
DISCID=d010d10e
DTITLE=Whitesnake - International Forum A Tokyo 21-05-06 Disc 2
DYEAR=2006
DGENRE=Hard Rock
TTITLE0=Ain't No Love In The Heart Of The City
TTITLE1=Give Me All Your Love
TTITLE2=Here I Go Again
TTITLE3=Take Me With You
TTITLE4=Still Of The Night
TTITLE5=We Wish You Well
TTITLE6=Blues Mylene 
TTITLE7=Mistreated
TTITLE8=Snake Dance #1
TTITLE9=Snake Dance #2
TTITLE10=Crying In The Rain (Intro Only)
TTITLE11=Ready To Rock #1
TTITLE12=Ready To Rock #2
TTITLE13=Ready To Rock #3
EXTD=
EXTT0=
EXTT1=
EXTT2=
EXTT3=
EXTT4=
EXTT5=
EXTT6=
EXTT7=
EXTT8=
EXTT9=
EXTT10=
EXTT11=
EXTT12=
EXTT13=
PLAYORDER=
